<svg width="48" height="48" viewBox="0 0 48 48" fill="none" xmlns="http://www.w3.org/2000/svg">
<rect width="48" height="48" rx="12.88" fill="#1D4ED8"/>
<path d="M32.6185 39.2092C31.8899 38.1052 31.1281 37.2331 30.3333 36.5927C29.5384 35.9524 28.6552 35.4887 27.6837 35.2017C26.7342 34.9147 25.6192 34.7711 24.3385 34.7711C21.7331 34.7711 19.492 34.2743 17.6152 33.2807C15.7384 32.2871 14.2921 30.863 13.2765 29.0083C12.2829 27.1535 11.7861 24.9345 11.7861 22.3511C11.7861 19.7678 12.2829 17.5487 13.2765 15.694C14.2921 13.8393 15.7384 12.4151 17.6152 11.4215C19.492 10.4279 21.7331 9.93114 24.3385 9.93114C26.944 9.93114 29.1741 10.4279 31.0288 11.4215C32.9056 12.4151 34.3408 13.8393 35.3344 15.694C36.3501 17.5487 36.8579 19.7678 36.8579 22.3511C36.8579 23.8305 36.6813 25.2105 36.328 26.4911C35.9747 27.7718 35.4558 28.9089 34.7713 29.9025C34.1089 30.8961 33.2809 31.7462 32.2873 32.4527V32.519C34.1862 33.3139 35.787 34.5062 37.0897 36.0959L32.6185 39.2092ZM24.3385 29.9025C25.7737 29.9025 26.9992 29.6155 28.0149 29.0414C29.0305 28.4452 29.7923 27.5951 30.3001 26.4911C30.8301 25.3651 31.095 23.9851 31.095 22.3511C31.095 20.7172 30.8301 19.3483 30.3001 18.2443C29.7923 17.1182 29.0305 16.2681 28.0149 15.694C26.9992 15.0979 25.7737 14.7998 24.3385 14.7998C22.8813 14.7998 21.6448 15.0979 20.6291 15.694C19.6355 16.2681 18.8737 17.1182 18.3438 18.2443C17.836 19.3483 17.5821 20.7172 17.5821 22.3511C17.5821 23.9851 17.836 25.3651 18.3438 26.4911C18.8737 27.5951 19.6355 28.4452 20.6291 29.0414C21.6448 29.6155 22.8813 29.9025 24.3385 29.9025Z" fill="white"/>
</svg>
